<?xml version="1.0" encoding="UTF-8"?>
<svg width="800px" height="800px" viewBox="0 0 800 800" version="1.1" xmlns="http://www.w3.org/2000/svg">
  <title>Pediatric Doctor Illustration</title>
  <g id="Layer_1" stroke="none" stroke-width="1" fill="none" fill-rule="evenodd">
    <circle fill="#E3F2FD" cx="400" cy="400" r="400"></circle>
    <g transform="translate(200.000000, 100.000000)">
      <path d="M199.5,207.7 C259.9,207.7 309,158.6 309,98.2 C309,37.8 259.9,-11.3 199.5,-11.3 C139.1,-11.3 90,37.8 90,98.2 C90,158.6 139.1,207.7 199.5,207.7 Z" fill="#FFCCBC"></path>
      <path d="M346.4,384.4 C314.5,359.8 249.9,338.4 201.1,338.4 C152.3,338.4 87.7,359.8 55.8,384.4 C24,409 7.6,459.4 0.6,495.1 C-0.6,500.5 3.2,505.6 8.7,506.8 C9.5,507 10.2,507.1 10.9,507.1 C15.3,507.1 19.3,504 20.3,499.5 C26.1,473.6 39.5,431.6 66.4,411.3 C96.5,388.6 156.9,367.7 201.1,367.7 C245.3,367.7 305.8,388.6 335.8,411.3 C362.7,431.6 376.2,473.6 381.9,499.5 C383,504 387,507.1 391.3,507.1 C392.1,507.1 392.8,507 393.6,506.8 C399.1,505.6 402.9,500.5 401.7,495.1 C394.6,459.4 378.2,409 346.4,384.4 Z" fill="#FFFFFF"></path>
      <path d="M199.5,233.5 C145.3,233.5 101.2,189.4 101.2,135.2 C101.2,131 101.4,126.9 101.9,122.9 C113,143.7 135,158 160.5,158 C191.2,158 216,133.2 216,102.5 C216,72.7 191.4,48 160.7,48 C159.2,48 157.7,48.1 156.2,48.2 C167.5,34.7 184.4,26 203.5,26 C245.3,26 279.2,59.9 279.2,101.7 C279.2,143.5 245.3,233.5 199.5,233.5 Z" fill="#EF9A9A"></path>
      <path d="M233.6,116.4 C230.6,118 227,118.8 223.3,118.8 C212,118.8 202.8,109.6 202.8,98.3 C202.8,87 212,77.8 223.3,77.8 C227,77.8 230.6,78.6 233.6,80.2 C237.9,82.4 240.8,87.1 240.8,92.1 C240.8,97 237.9,101.7 233.6,103.9 Z" fill="#6D4C41"></path>
      <path d="M165.3,116.4 C162.3,118 158.7,118.8 155,118.8 C143.7,118.8 134.5,109.6 134.5,98.3 C134.5,87 143.7,77.8 155,77.8 C158.7,77.8 162.3,78.6 165.3,80.2 C169.6,82.4 172.5,87.1 172.5,92.1 C172.5,97 169.6,101.7 165.3,103.9 Z" fill="#6D4C41"></path>
      <path d="M198.5,142.7 C187.6,142.7 174.6,147.1 174.6,158 C174.6,159.7 173.2,161 171.5,161 C169.8,161 168.4,159.7 168.4,158 C168.4,142.2 186.8,136.5 198.5,136.5 C210.2,136.5 228.6,142.2 228.6,158 C228.6,159.7 227.2,161 225.5,161 C223.8,161 222.4,159.7 222.4,158 C222.4,147.1 209.4,142.7 198.5,142.7 Z" fill="#6D4C41"></path>
    </g>
  </g>
</svg>
